{
	"asset":{
		"generator":"Khronos glTF Blender I/O v5.0.21",
		"version":"2.0"
	},
	"scene":0,
	"scenes":[
		{
			"name":"Scene",
			"nodes":[
				0
			]
		}
	],
	"nodes":[
		{
			"mesh":0,
			"name":"Plane.002",
			"scale":[
				5.400000095367432,
				1,
				5.400000095367432
			],
			"translation":[
				0,
				-0.48536401987075806,
				2.6886613368988037
			]
		}
	],
	"materials":[
		{
			"doubleSided":true,
			"name":"Material.001",
			"pbrMetallicRoughness":{
				"baseColorFactor":[
					0.23860551416873932,
					0.23860551416873932,
					0.23860551416873932,
					1
				],
				"roughnessFactor":0.30000001192092896
			}
		}
	],
	"meshes":[
		{
			"name":"Plane.002",
			"primitives":[
				{
					"attributes":{
						"POSITION":0,
						"NORMAL":1,
						"TEXCOORD_0":2
					},
					"indices":3,
					"material":0
				}
			]
		}
	],
	"accessors":[
		{
			"bufferView":0,
			"componentType":5126,
			"count":6228,
			"max":[
				0.7192345261573792,
				0.6247992515563965,
				-0.27642330527305603
			],
			"min":[
				-0.7231838703155518,
				0.37249132990837097,
				-0.7253358364105225
			],
			"type":"VEC3"
		},
		{
			"bufferView":1,
			"componentType":5126,
			"count":6228,
			"type":"VEC3"
		},
		{
			"bufferView":2,
			"componentType":5126,
			"count":6228,
			"type":"VEC2"
		},
		{
			"bufferView":3,
			"componentType":5123,
			"count":12456,
			"type":"SCALAR"
		}
	],
	"bufferViews":[
		{
			"buffer":0,
			"byteLength":74736,
			"byteOffset":0,
			"target":34962
		},
		{
			"buffer":0,
			"byteLength":74736,
			"byteOffset":74736,
			"target":34962
		},
		{
			"buffer":0,
			"byteLength":49824,
			"byteOffset":149472,
			"target":34962
		},
		{
			"buffer":0,
			"byteLength":24912,
			"byteOffset":199296,
			"target":34963
		}
	],
	"buffers":[
		{
			"byteLength":224208,
			"uri":"model.bin"
		}
	]
}
